<svg xmlns="http://www.w3.org/2000/svg" xmlns:xlink="http://www.w3.org/1999/xlink" width="24" height="24" viewBox="0 0 24 24">
  <defs>
    <polygon id="download-a" points="0 0 24 0 24 24.004 0 24.004"/>
    <path id="download-b" d="M11.0254313,13.5193342 L8.56646739,10.924724 C8.35169426,10.6978935 8.36149093,10.3399383 8.5883215,10.1251651 C8.81213771,9.91114558 9.17084651,9.92018866 9.38637323,10.1462656 L11.4044871,12.2759108 L11.4044871,5.56519245 C11.4044871,5.25320622 11.6576933,5 11.9696795,5 C12.2816658,5 12.534872,5.25320622 12.534872,5.56519245 L12.534872,12.2095949 L14.4949594,10.1432513 C14.7097325,9.91566712 15.0669341,9.90662404 15.2930111,10.1213972 C15.5198417,10.3361703 15.5296384,10.6941255 15.3141116,10.9209561 L12.8506261,13.5193342 C12.610231,13.7740476 12.2854337,13.9142153 11.9387823,13.9142153 C11.5913774,13.9142153 11.2665801,13.7740476 11.0254313,13.5193342 Z M18.297122,7.12482217 C19.7869693,7.12482217 20.9979883,8.33659478 20.9979883,9.82644208 L20.9979883,16.4783804 C20.9979883,17.9682277 19.7869693,19.1800003 18.297122,19.1800003 L5.7016199,19.1800003 C4.2125262,19.1800003 3,17.9682277 3,16.4783804 L3,9.82644208 C3,8.33659478 4.2125262,7.12482217 5.7016199,7.12482217 L6.77699274,7.12482217 C7.08897897,7.12482217 7.34218519,7.37802839 7.34218519,7.69001462 C7.34218519,8.00200085 7.08897897,8.25520707 6.77699274,8.25520707 L5.7016199,8.25520707 C4.83574507,8.25520707 4.1303849,8.96056724 4.1303849,9.82644208 L4.1303849,16.4783804 C4.1303849,17.3450088 4.83574507,18.0496154 5.7016199,18.0496154 L18.297122,18.0496154 C19.1629969,18.0496154 19.8676034,17.3450088 19.8676034,16.4783804 L19.8676034,9.82644208 C19.8676034,8.96056724 19.1629969,8.25520707 18.297122,8.25520707 L17.2940938,8.25520707 C16.9821076,8.25520707 16.7289014,8.00200085 16.7289014,7.69001462 C16.7289014,7.37802839 16.9821076,7.12482217 17.2940938,7.12482217 L18.297122,7.12482217 Z"/>
  </defs>
  <g fill="none" fill-rule="evenodd">
    <mask id="download-c" fill="#fff">
      <use xlink:href="#download-b"/>
    </mask>
    <use fill="#414042" xlink:href="#download-b"/>
    <g fill="#FFF" mask="url(#download-c)">
      <rect width="24" height="24"/>
    </g>
  </g>
</svg>
