<svg xmlns="http://www.w3.org/2000/svg" xmlns:xlink="http://www.w3.org/1999/xlink" width="24" height="24" viewBox="0 0 24 24">
  <defs>
    <polygon id="email-a" points="0 0 24 0 24 24.004 0 24.004"/>
    <path id="email-b" d="M19.4835,15.9919286 C19.4835,16.7305714 18.8817857,17.3316429 18.1431429,17.3316429 L5.30464286,17.3316429 C4.566,17.3316429 3.96428571,16.7305714 3.96428571,15.9919286 L3.96428571,8.304 C3.96428571,7.56535714 4.566,6.96428571 5.30464286,6.96428571 L18.1431429,6.96428571 C18.8817857,6.96428571 19.4835,7.56535714 19.4835,8.304 L19.4835,15.9919286 Z M18.1431429,6 C19.4140714,6 20.4477857,7.03307143 20.4477857,8.304 L20.4477857,15.9919286 C20.4477857,17.2628571 19.4140714,18.2959286 18.1431429,18.2959286 L5.30464286,18.2959286 C4.03435714,18.2959286 3,17.2628571 3,15.9919286 L3,8.304 C3,7.03307143 4.03435714,6 5.30464286,6 L18.1431429,6 Z M17.2850676,8.46059174 L11.5462819,11.8535917 L5.72713907,8.42459174 C5.49635336,8.28702031 5.20256764,8.36609174 5.06692479,8.59494888 C4.93192479,8.82444888 5.00842479,9.12016317 5.23792479,9.25516317 L11.3019962,12.828806 C11.3778534,12.873806 11.4620676,12.8956632 11.5469248,12.8956632 C11.6317819,12.8956632 11.7166391,12.873806 11.7924962,12.828806 L17.7762105,9.29052031 C18.0050676,9.15487745 18.0809248,8.85916317 17.9452819,8.63030602 C17.8102819,8.40080602 17.5145676,8.32559174 17.2850676,8.46059174 Z"/>
  </defs>
  <g fill="none" fill-rule="evenodd">
    <mask id="email-c" fill="#fff">
      <use xlink:href="#email-b"/>
    </mask>
    <use fill="#FFF" xlink:href="#email-b"/>
    <g fill="#FFF" mask="url(#email-c)">
      <rect width="24" height="24"/>
    </g>
  </g>
</svg>
