<svg xmlns="http://www.w3.org/2000/svg" xmlns:xlink="http://www.w3.org/1999/xlink" width="24" height="24" viewBox="0 0 24 24">
  <defs>
    <polygon id="facebook-a" points="0 0 24 0 24 24.004 0 24.004"/>
    <path id="facebook-b" d="M16.3381169,3.00281999 L14.0110606,3 C11.3966473,3 9.70719098,4.73711421 9.70719098,7.43020523 L9.70719098,9.47187843 L7.36659878,9.47187843 C7.16413186,9.47187843 7,9.63601029 7,9.83847721 L7,12.7994673 C7,13.0019342 7.16413186,13.1660661 7.36659878,13.1660661 L9.70719098,13.1660661 L9.70719098,20.6334012 C9.70719098,20.8358681 9.87132284,21 10.0737898,21 L13.1264296,21 C13.3288965,21 13.4930284,20.8358681 13.4930284,20.6334012 L13.4930284,13.1660661 L16.2284192,13.1660661 C16.4308862,13.1660661 16.595018,13.0019342 16.595018,12.7994673 L16.595018,9.83847721 C16.595018,9.63601029 16.4308862,9.47187843 16.2284192,9.47187843 L13.4930284,9.47187843 L13.4930284,7.7404042 C13.4930284,6.90850697 13.6904277,6.48550838 14.7713301,6.48550838 L16.3392449,6.48550838 C16.4364729,6.48550838 16.5297187,6.44688469 16.5984694,6.37813409 C16.66722,6.30938348 16.7058436,6.21613764 16.7058436,6.1189096 L16.7058436,3.36941877 C16.7058441,3.27199497 16.6670656,3.17857779 16.5980709,3.10979466 C16.5290761,3.04101154 16.4355402,3.00252023 16.3381169,3.00281999 Z"/>
  </defs>
  <g fill="none" fill-rule="evenodd">
    <mask id="facebook-c" fill="#fff">
      <use xlink:href="#facebook-b"/>
    </mask>
    <use fill="#414042" xlink:href="#facebook-b"/>
    <g fill="#FFF" mask="url(#facebook-c)">
      <rect width="24" height="24"/>
    </g>
  </g>
</svg>
