<svg xmlns="http://www.w3.org/2000/svg" xml:space="preserve" x="0" y="0" version="1.1" viewBox="0 0 349.1 70.5"><text transform="translate(1742.17 1168.292)"><tspan fill="#3b3b49" x="0" y="0" font-family="DeRotterdamDemo-Regular" font-size="60" letter-spacing="-1">Kuplio</tspan><tspan fill="#3b3b49" x="207.8" y="0" font-family="DeRotterdamDemo-Regular" font-size="30">.PL</tspan></text><text transform="translate(1742.17 1448.291)"><tspan fill="#3b3b49" x="0" y="0" font-family="DeRotterdamDemo-Regular" font-size="60" letter-spacing="-1">Kuplio</tspan><tspan fill="#3b3b49" x="207.8" y="0" font-family="DeRotterdamDemo-Regular" font-size="30">.PL</tspan></text><text fill="#3b3b49" font-family="Exo2-SemiBold" font-size="13" letter-spacing="3" transform="translate(1744.866 1470.197)">Kupuj taniej</text><path d="M61 17.5s-6 14.2-27.9 14.2C9.9 31.6 5 17.5 5 17.5c-2.8 0-5 2.2-5 5v34c0 7.7 6.3 14 14 14h38c7.7 0 14-6.3 14-14v-34c0-2.8-2.3-5-5-5z" fill="#ff5925"/><path d="M56.1 41.3c-4.8 8.3-13.6 13.5-23 13.5s-18.2-5.2-23-13.6c-.6-1-.6-2.3.2-3.2 1.2-1.4 3.3-1 4.1.5 3.9 6.9 11 11.1 18.7 11.1S48 45.3 51.8 38.4c.7-1.3 2.3-1.7 3.5-.9 1.3.8 1.5 2.5.8 3.8zm-12-18c-6.4 0-11.7-5.2-11.7-11.7S37.6 0 44.1 0s11.7 5.2 11.7 11.7-5.3 11.6-11.7 11.6zm0-18.8c-3.9 0-7.1 3.2-7.1 7.1s3.2 7.1 7.1 7.1 7.1-3.2 7.1-7.1-3.2-7.1-7.1-7.1zm-24 18.8c-5.4 0-9.9-4.4-9.9-9.9 0-5.4 4.4-9.9 9.9-9.9S30 8 30 13.5c0 5.4-4.4 9.8-9.9 9.8zm0-15.2c-2.9 0-5.3 2.4-5.3 5.3s2.4 5.3 5.3 5.3 5.3-2.4 5.3-5.3-2.3-5.3-5.3-5.3zm76.7 48.4V20c0-.9.6-1.5 1.5-1.5h6.3c.9 0 1.5.6 1.5 1.5v15.5l15-16.3c.6-.6 1.3-.7 1.9-.7h7c1.1 0 1.7.6 1.7 1.3 0 .5-.1 1-.5 1.3l-12.7 14.2c7.5 4.6 11.3 14.1 12.5 20.9.1.8-.3 1.9-1.6 1.9h-5.9c-1.1 0-2.3-.6-2.6-1.7-1.6-6.9-4.8-12.8-9.1-15.5l-5.8 5.8v9.9c0 1-.6 1.6-1.5 1.6h-6.3c-.8-.1-1.4-.7-1.4-1.7zm38.7-16V20c0-.9.6-1.5 1.5-1.5h6.3c.9 0 1.5.6 1.5 1.5v20.8c0 5.2 3.2 9.6 9.2 9.6 5.5 0 8.6-4.7 8.6-9.9V20c0-.9.6-1.5 1.6-1.5h5.9c.9 0 1.6.6 1.6 1.5v20.5c0 11.2-7.4 18.4-17.9 18.4-11 0-18.3-7.2-18.3-18.4zm40.6 16V20c0-.9.6-1.5 1.5-1.5h17.9c10.7 0 16.2 6.8 16.2 13.9 0 8.9-6.1 14.5-19.7 14.5-2 0-4.3-.1-6.6-.4v10c0 1-.6 1.6-1.5 1.6h-6.3c-.9 0-1.5-.6-1.5-1.6zm26.4-24.1c0-2.8-2.3-5.5-7-5.5h-10.1v11.5c2 .2 3.9.2 5.5.2 8.4 0 11.6-2 11.6-6.2zm12.4 10.7V20c0-.9.6-1.5 1.5-1.5h6.3c.9 0 1.5.6 1.5 1.5v21.4c0 8.7 3.5 8.3 9.5 8.3h8.6c.9 0 1.6.6 1.6 1.5v5.3c0 1-.7 1.6-1.6 1.6h-10.1c-11 0-17.3-3.7-17.3-15zm32.4 13.4V20c0-.9.6-1.5 1.5-1.5h6.3c.9 0 1.5.6 1.5 1.5v36.5c0 1-.6 1.6-1.5 1.6h-6.3c-.9 0-1.5-.6-1.5-1.6zM260.2 38c0-11.3 8.4-20.6 20.2-20.6 12.6 0 20.6 8.8 20.6 20.3 0 12.1-8.2 21.1-20.4 21.1-12.4.1-20.4-9.1-20.4-20.8zm31.5 0c0-7.4-5.3-12.2-11.1-12.2s-11.1 4.6-11.1 11.9c0 7.8 4.6 12.7 10.9 12.7s11.3-4.7 11.3-12.4z" fill="#fff"/><path d="M303 57.3v-3c0-.5.3-.8.8-.8h3c.4 0 .8.3.8.8v3c0 .5-.3.8-.8.8h-3c-.5 0-.8-.3-.8-.8zm23.6-2.4v2.4c0 .5-.3.8-.8.8-3.9 0-8.4-1.3-9.7-5.6-.6 0-1.3-.1-2-.1v5c0 .5-.3.8-.8.8h-3.1c-.5 0-.8-.3-.8-.8V39c0-.4.3-.8.8-.8h9c5.3 0 8.1 3.4 8.1 7s-2 6.1-6.2 6.9c.4 1.4 2.2 2 4.7 2 .5.1.8.4.8.8zm-12.5-6.7c1 .1 2 .1 2.8.1 4.2 0 5.8-1 5.8-3.1 0-1.4-1.1-2.8-3.5-2.8h-5.1v5.8zm14.6-.2c0-5.6 4.2-10.3 10.1-10.3 6.3 0 10.3 4.4 10.3 10.2 0 6-4.1 10.6-10.2 10.6-6.2 0-10.2-4.6-10.2-10.5zm15.7 0c0-3.7-2.6-6.1-5.5-6.1s-5.5 2.3-5.5 6c0 3.9 2.3 6.3 5.4 6.3 3.1 0 5.6-2.3 5.6-6.2z" fill="#abadb1"/></svg>