<svg xmlns="http://www.w3.org/2000/svg" xmlns:xlink="http://www.w3.org/1999/xlink" width="24" height="24" viewBox="0 0 24 24">
  <defs>
    <polygon id="instagram-a" points="0 0 24 0 24 24.004 0 24.004"/>
    <path id="instagram-b" d="M11.9684408,9.01314966 C13.1828002,9.00733176 14.2808506,9.73429105 14.7497342,10.8544922 C15.2186178,11.9746934 14.9658081,13.2670834 14.1093831,14.1280355 C13.252958,14.9889876 11.9619188,15.2486073 10.8392612,14.785636 C9.71660365,14.3226647 8.98386548,13.228462 8.98328115,12.0140889 C8.98000717,10.361519 10.3158766,9.01858813 11.9684408,9.01314966 L11.9684408,9.01314966 Z M11.9684408,7.51127113 C10.1458457,7.50191569 8.49748047,8.59254469 7.7933799,10.2736702 C7.08927934,11.9547957 7.46841844,13.894598 8.75368218,15.1868975 C10.0389459,16.4791969 11.9766495,16.8689199 13.6615938,16.1740073 C15.346538,15.4790947 16.4461494,13.836708 16.4467439,12.0140889 C16.4502611,10.8230374 15.9803534,9.67940001 15.1404511,8.83490002 C14.3005489,7.99040004 13.1594938,7.5142561 11.9684408,7.51127113 L11.9684408,7.51127113 L11.9684408,7.51127113 Z M16.7451472,6.01221039 C17.2312101,6.00970018 17.6708096,6.30056542 17.8585597,6.74891051 C18.0463099,7.19725561 17.9451466,7.71457206 17.6023346,8.05916366 C17.2595226,8.40375526 16.7427369,8.50759563 16.2934257,8.32216937 C15.8441145,8.13674311 15.5509771,7.69865548 15.5509706,7.2125861 C15.5495678,6.55147588 16.0840385,6.01423065 16.7451472,6.01221039 L16.7451472,6.01221039 Z M15.8372574,4.49906074 C17.82013,4.50620662 19.4229079,6.11730479 19.4197871,8.10018785 L19.4197871,15.8998121 C19.4229079,17.8826952 17.82013,19.4937934 15.8372574,19.5009393 L8.07510958,19.5009393 C6.09223693,19.4937934 4.48945899,17.8826952 4.49257984,15.8998121 L4.49257984,8.10018785 C4.48945899,6.11730479 6.09223693,4.50620662 8.07510958,4.49906074 L15.8372574,4.49906074 L15.8372574,4.49906074 Z M15.8372574,3 L8.07510958,3 C5.26853882,3.0147258 3.00089143,5.29357861 3,8.10018785 L3,15.8998121 C3.00089143,18.7064214 5.26853882,20.9852742 8.07510958,21 L15.8372574,21 C18.6438281,20.9852742 20.9114755,18.7064214 20.9123669,15.8998121 L20.9123669,8.10018785 C20.9114755,5.29357861 18.6438281,3.0147258 15.8372574,3 L15.8372574,3 L15.8372574,3 Z"/>
  </defs>
  <g fill="none" fill-rule="evenodd">
    <mask id="instagram-c" fill="#fff">
      <use xlink:href="#instagram-b"/>
    </mask>
    <use fill="#414042" xlink:href="#instagram-b"/>
    <g fill="#FFF" mask="url(#instagram-c)">
      <rect width="24" height="24"/>
    </g>
  </g>
</svg>
