<svg xmlns="http://www.w3.org/2000/svg" xmlns:xlink="http://www.w3.org/1999/xlink" width="24" height="24" viewBox="0 0 24 24">
  <defs>
    <polygon id="youtube-a" points="0 0 24 0 24 24.004 0 24.004"/>
    <path id="youtube-b" d="M17.5843859,16.1648046 L16.6051319,16.1648046 L16.6083745,15.590871 C16.6090724,15.3363358 16.8142943,15.1296686 17.0688184,15.1271845 L17.1336697,15.1271845 C17.3881937,15.1296686 17.5934157,15.3363358 17.5941136,15.590871 L17.5843859,16.1648046 Z M13.9105623,14.9358733 C13.6821506,14.9169934 13.4805067,15.0840698 13.4566035,15.3120106 L13.4566035,18.1006145 C13.4986186,18.3172233 13.6882951,18.473644 13.908941,18.473644 C14.1295869,18.473644 14.3192635,18.3172233 14.3612785,18.1006145 L14.3612785,15.3120106 C14.3373794,15.0854289 14.1377636,14.918843 13.9105623,14.9358733 L13.9105623,14.9358733 Z M19.8768777,13.3762007 L19.8768777,18.6842758 C19.8381844,19.9935721 18.7512934,21.0269145 17.4417131,20.9994656 L7.43516459,20.9994656 C6.12558433,21.0269145 5.03869335,19.9935721 5,18.6842758 L5,13.3762007 C5.03747138,12.0663589 6.12510122,11.032314 7.43516459,11.0610109 L17.4417131,11.0610109 C18.7517765,11.032314 19.8394063,12.0663589 19.8768777,13.3762007 L19.8768777,13.3762007 Z M8.10313251,19.261452 L8.10313251,13.6680313 L9.34179147,13.6680313 L9.34179147,12.8411778 L6.0343775,12.8346927 L6.0343775,13.6485759 L7.06875501,13.6518185 L7.06875501,19.261452 L8.10313251,19.261452 Z M11.8223519,14.5013699 L10.7879744,14.5013699 L10.7879744,17.4877702 C10.8047175,17.7285511 10.8036337,17.9702405 10.7847319,18.2108617 C10.7004252,18.4443262 10.324288,18.6875184 10.1751301,18.2368022 C10.1603896,17.9938625 10.1593071,17.7502866 10.1718875,17.5072256 L10.168645,14.5013699 L9.14075258,14.5013699 L9.14399514,17.4618297 C9.14399514,17.9125459 9.13426745,18.253015 9.1472377,18.4054154 C9.1731782,18.6777907 9.16345052,18.9923193 9.41312784,19.1739028 C9.87681431,19.5111293 10.7685191,19.1252643 10.9922559,18.6421225 L10.9922559,19.2582094 L11.8223519,19.2582094 L11.8223519,14.5013699 L11.8223519,14.5013699 L11.8223519,14.5013699 Z M15.1297659,17.919031 L15.1265233,15.435228 C15.1265233,14.4883997 14.4228872,13.9209512 13.4695738,14.686196 L13.4760589,12.8411778 L12.4416814,12.8411778 L12.4351963,19.2192987 L13.2847477,19.2063284 L13.3625692,18.8074932 C14.4488277,19.8126876 15.1330085,19.1252643 15.1297659,17.919031 L15.1297659,17.919031 Z M18.3658435,17.5915322 L17.590871,17.5947747 L17.590871,18.1362827 C17.5901588,18.3705842 17.4003968,18.5603463 17.1660953,18.5610584 L17.0136948,18.5610584 C16.7793933,18.5603463 16.5896313,18.3705842 16.5889191,18.1362827 L16.5889191,16.9884155 L18.3658435,16.9884155 L18.3658435,16.317205 C18.3726591,15.8939485 18.3553373,15.4706476 18.3139625,15.049363 C18.18426,14.1576583 16.945601,14.0182281 16.3197864,14.4721869 C16.1157625,14.6175719 15.9635263,14.8243405 15.885283,15.0623333 C15.7855946,15.4032764 15.74072,15.7578954 15.7523379,16.1129236 L15.7523379,17.5947747 C15.7523379,20.0591224 18.7225254,19.7089256 18.3658435,17.5915322 L18.3658435,17.5915322 Z M14.3904616,9.54673411 C14.4928812,9.82455475 14.7662702,10.0015312 15.0616721,9.98123751 C15.2034288,9.98428914 15.342314,9.94102981 15.4572647,9.85802013 C15.5836599,9.75900233 15.6829384,9.62960563 15.7458528,9.48188285 L15.7263974,9.89368832 L16.8807498,9.89368832 L16.8807498,4.94878019 L15.9728322,4.94878019 L15.9728322,8.79770212 C15.9728322,9.00633241 15.8037039,9.17546068 15.5950736,9.17546068 C15.3864434,9.17546068 15.2173151,9.00633241 15.2173151,8.79770212 L15.2173151,4.94878019 L14.2704868,4.94878019 L14.2704868,8.28213465 C14.2704868,8.70691037 14.2769719,8.99225588 14.2899422,9.13492864 C14.3022647,9.27651796 14.3361628,9.41539098 14.3904616,9.54673411 L14.3904616,9.54673411 Z M10.894979,6.75488762 C10.8833697,6.38057994 10.9226392,6.00642914 11.0117113,5.64268861 C11.081869,5.38915475 11.230582,5.16438244 11.436487,5.00066119 C11.6610598,4.83176075 11.937187,4.74582904 12.2179446,4.75746899 C12.4564963,4.75104341 12.6928494,4.80455731 12.9053679,4.913112 C13.0852628,5.00735404 13.2373119,5.14710508 13.3463564,5.31843234 C13.4460163,5.47711426 13.5183561,5.6513875 13.5603655,5.83399981 C13.6065032,6.10162777 13.6260538,6.37316341 13.6187317,6.64464048 L13.6187317,7.89302713 C13.6256837,8.23115766 13.6072575,8.56933328 13.5636081,8.90470669 C13.5284476,9.11773026 13.4512927,9.32163963 13.3366287,9.50458079 C13.2317016,9.68209009 13.0773359,9.8251882 12.8923976,9.91638625 C12.6966118,10.0076996 12.4825819,10.0531671 12.266583,10.0493313 C12.0397379,10.0550612 11.8139515,10.0165123 11.6018577,9.93584163 C11.428617,9.867117 11.2804405,9.74721839 11.177082,9.59212998 C11.0676221,9.42404706 10.9936904,9.23535564 10.9598303,9.03765176 C10.9076556,8.715068 10.8859429,8.38829131 10.894979,8.06164039 L10.894979,6.75488762 L10.894979,6.75488762 L10.894979,6.75488762 Z M11.799654,8.71663805 C11.7809888,8.89160944 11.8638212,9.0618886 12.0129989,9.15521267 C12.1621767,9.24853675 12.351534,9.24853675 12.5007117,9.15521267 C12.6498895,9.0618886 12.7327219,8.89160944 12.7140567,8.71663805 L12.7140567,6.0869197 C12.7327219,5.91194831 12.6498895,5.74166915 12.5007117,5.64834508 C12.351534,5.555021 12.1621767,5.555021 12.0129989,5.64834508 C11.8638212,5.74166915 11.7809888,5.91194831 11.799654,6.0869197 L11.799654,8.71663805 L11.799654,8.71663805 Z M8.60897229,10.0460888 L9.6952308,10.0460888 L9.6952308,6.25553296 L10.9825282,3.00648513 L9.79250768,3.00648513 L9.10832695,5.41895178 L8.41441853,3 L7.23736827,3 L8.60572973,6.25877552 L8.60897229,10.0460888 Z"/>
  </defs>
  <g fill="none" fill-rule="evenodd">
    <mask id="youtube-c" fill="#fff">
      <use xlink:href="#youtube-b"/>
    </mask>
    <use fill="#414042" xlink:href="#youtube-b"/>
    <g fill="#FFF" mask="url(#youtube-c)">
      <rect width="24" height="24"/>
    </g>
  </g>
</svg>
